# xmcd
#
# Track frame offsets: 
#        150
#        18705
#        38943
#        62958
#        83801
#        101964
#        133101
#        150238
#        169847
#        187467
#        209849
#        230857
#        247567
#        272994
#        295409
#        320153
#        331338
#
# Disc length: 4784 seconds
#
# Revision: 0
# Processed by: cddbd v1.5.2PL0 Copyright (c) Steve Scherf et al.
# Submitted via: ExactAudioCopy v1.3
#
DISCID=1012ae11
DTITLE=Various Artist - Akella Presents - vol. 147 - Black Pure Blues
DTITLE=CD1
DYEAR=2018
DGENRE=Blues
TTITLE0=James Armstrong - Shot Gun Wedding
TTITLE1=Billy Cox - Ju Ju Woman
TTITLE2=Dennis Jones - Fresh Out Of Love
TTITLE3=Buddy Guy - Where The Blues Begins
TTITLE4=Skeeter Brandon - You Can't Have It Your Way
TTITLE5=Robert Ward - Black Bottom
TTITLE6=George Stancell - A Bluesman
TTITLE7=2000 Lbs Of Blues - Waiting Up For You
TTITLE8=Eddie C. Campbell - You Make Me Feel All Right
TTITLE9=Vernon Ray Harrington - Help Me With The Bills
TTITLE10=Percy Strother - I've Got the Blues
TTITLE11=Lil' Ed and The Blues Imperials - Poor Man's Song
TTITLE12=Jerry McCain - A Rose For My Lady
TTITLE13=Big Jack Johnson - No Good Cow
TTITLE14=Carvin Jones - Atm Blues
TTITLE15=Big Mojo Elem - Bullets Flyin
TTITLE16=Pinetop Perkins - Love My Woman
EXTD=
EXTT0=
EXTT1=
EXTT2=
EXTT3=
EXTT4=
EXTT5=
EXTT6=
EXTT7=
EXTT8=
EXTT9=
EXTT10=
EXTT11=
EXTT12=
EXTT13=
EXTT14=
EXTT15=
EXTT16=
PLAYORDER=
